<svg xmlns="http://www.w3.org/2000/svg" viewBox="0 0 714.72 714.72"><defs><style>.cls-1{fill:#061822;}.cls-2{fill:#057ac7;}.cls-3{fill:#fff;}</style></defs><title>Asset 3</title><g id="Layer_2" data-name="Layer 2"><g id="Layer_2-2" data-name="Layer 2"><circle class="cls-1" cx="357.36" cy="357.36" r="357.36"/><g id="Layer_5" data-name="Layer 5"><path class="cls-2" d="M640.68,503c.35-.48,8.19-10.73,11.51-16.2,6.24-10.29,9.41-18.2,13.07-27.57,3.94-10.09,12.23-23.46,13.88-45.79q-11.64,9.18-23.29,18.35a127.5,127.5,0,0,0,2.52-16.43c2.34-27-4.52-49.58-11.71-72.48-1.48-4.73-3.85-11.91-7.19-20.6a295.66,295.66,0,0,1-.19,44.28c-1.9,23.92-4.32,51-19.45,80A158.31,158.31,0,0,1,594.48,482c12.89-5.55,24.1-11.48,28.18-13.35a50.47,50.47,0,0,1-4.91,13.66c-9.49,16.36-21.75,27.17-28.3,32.57-14.28,11.76-21.69,17.93-22.72,18.46-.45.22,28.57-.38,31.21-.56l-19,28.5c-30.67,46-68.2,75-68.33,75.34s26.25-13.77,45.66-28.67c25.27-19.39,25.27-19.39,46.34-37.67,15.3-13.27,21.11-21.34,30.75-32.91,11.66-14,22.27-30.6,33.75-44.75" transform="translate(-0.25 -0.25)"/><g id="Layer_6" data-name="Layer 6"><path d="M272.13,330.87c-2.47-4.58-4.06-7.39-5.51-10.27-4-7.83-7.92-15.67-11.74-23.57-3.45-7.14-9.58-10.9-16.93-10.44a79.57,79.57,0,0,0-23.54,4.91c-9.4,3.66-14.31,13.68-13.15,22.95.67,5.31,3.5,8.86,8.73,10.39,4.81,1.41,9.7,1.22,12.49-3.1,1.62-2.51,1.5-6.51,1.07-9.69-.09-.73-4.66-1-7.19-1.23-2-.2-5.39.61-5.82-.23-1.07-2.1-2-5.82-.85-7.2,2.92-3.61,6.52-7.2,10.64-9.18,7.86-3.79,12.81-.26,13,8.47a134.46,134.46,0,0,1-.4,15.16c-1.36,14.41-2,29-4.77,43.15-2.87,14.59-15.2,17.6-25.46,7.38-.95-.95-2.93-2-3.8-1.62-1.37.62-3.34,2.88-3,3.66,1,2.57,2.35,5.91,4.53,6.95,15.86,7.6,33.29-.84,36.43-18.14,2.06-11.39,2.31-23.11,3.39-34.68.19-2,.45-4,.68-6a11.13,11.13,0,0,1,4.91,5.1c4.5,9,8.7,18.23,13.49,27.11,1.38,2.57,4.15,5.4,6.72,5.91,1.48.3,4.46-3.48,5.7-6,4.42-8.84,8.33-17.93,12.56-26.87a45.65,45.65,0,0,1,3.58-5.45,14.83,14.83,0,0,1,2.2,6.92c1.76,14.83,3.37,29.68,5.37,44.48.91,6.74,4.89,10.35,11.66,10,5.13-.27,10.21-2,15.23-3.37,1-.29,1.69-1.89,3.72-4.33-8.88,2.08-10.22-2.29-10.74-7.94-2.26-24.29-4.71-48.55-7-72.83-.64-6.88,1-13.12,6.48-17.85,3.35-2.89,6.68-4.2,10.3-.19.84.93,2.93,1.87,3.72,1.45a5.26,5.26,0,0,0,2.05-3.78c.33-4.45-2.47-6.31-6.47-6.61-7.82-.58-14,3.31-18,9.18-8.34,12.07-15.94,24.66-23.55,37.22C279.18,316.68,276.25,323,272.13,330.87Z" transform="translate(-0.25 -0.25)"/><path d="M478.31,292.88c8.43-.29,8.85,4.47,8.78,10.52q-.34,29.34.07,58.67c.07,5.12-2,7.59-6.52,9.13-9.8,3.33-17.06-.78-18.71-11.1a55.7,55.7,0,0,1-.64-11.17c.66-15.13,1.78-30.25,2.21-45.39.27-9.4-4.59-15.43-13.49-16.73-12.13-1.77-23.1,1.37-32.18,9.94-4.79,4.53-6.57,10.24-6.09,16.73.7,9.46,9.21,14.59,17.94,10.88,4.93-2.1,6.26-6,5.05-10.74-1.44-5.62-5.31-3.92-8.9-2.49-4.41,1.74-6.08-.06-6.19-4.45-.17-6.51,4.53-9.15,9.22-11.6,8.58-4.51,13.84-1.44,13.57,8.14-.33,11.41-1.19,22.81-1.79,34.22-.23,4.38-.55,8.77-.49,13.16.33,24.29,18.54,36.12,40.91,26.34,3.65-1.59,5.89-1.93,9.27.71,6.27,4.89,20.22,2,25.56-5-8,1.47-8.41-3.41-8.06-9,.13-2,0-4,0-5.93q-.07-30-.15-60c0-5-1.41-9.33-6.77-10.8C492.44,284.61,485.46,288.48,478.31,292.88Z" transform="translate(-0.25 -0.25)"/><path d="M289.67,192.78h.05c0,10.76-.12,21.53,0,32.29.15,9.78,3,13.17,12.71,14.14,18.46,1.85,35.53-1.85,47.23-17.36,12.23-16.19,12.6-34.71,6.28-53.34-2.53-7.43-8.05-12.94-15.21-16.62-14.33-7.35-29.71-7.48-45.06-5.79a88,88,0,0,0-24.05,6c-9.3,3.9-13.39,13.89-11.15,22.95a12.52,12.52,0,0,0,19.34,7.3c4.05-2.84,4.82-6.81,3-11-1.93-4.37-5-2.51-8.29-1.24-1.57.61-5.37-.27-5.55-1.06-.57-2.57-1-6.54.44-7.92a32.17,32.17,0,0,1,12-7.39c6.35-2,8.27,0,8.3,6.76C289.7,171.25,289.67,182,289.67,192.78Z" transform="translate(-0.25 -0.25)"/><path d="M219.28,476v-.14c-4.62,0-9.26-.27-13.84.14-1.75.15-3.36,1.83-5,2.82,1.62,1,3.17,2.8,4.88,3,3.48.38,6,1,5.87,5.25-.15,7,.3,14.09-.31,21.07-.17,1.93-3,4.85-5,5.19-10,1.73-18.83-3.76-20.78-14.69a147,147,0,0,1-2-33.9c.58-10.39,4.73-20.2,13.39-27,9.59-7.54,15.45-5.25,17.77,6.62.17.86.05,2,.55,2.54,1.87,2.18,4.07,6,5.89,5.84a11.92,11.92,0,0,0,8.2-5c3.69-6.14.33-13.57-7.45-17.07a40.1,40.1,0,0,0-29.62-1.42c-22.57,7.38-34.73,28.32-31.73,54.34,1.58,13.69,6,26.4,19.43,32.25,7.73,3.38,16.95,3.32,25.46,5,2.06.41,5.15,1.08,5.73,2.48,2.22,5.31-3.38,17.44-9,20.66-7.39,4.27-12.4,3.24-19.1-3.35-1.19-1.16-3.64-1-5.51-1.5-.54,2.2-1.92,4.63-1.38,6.52a6.9,6.9,0,0,0,4.79,3.91c6.24.87,12.66,1.9,18.86,1.31,18.79-1.8,29.75-14.25,30-33,.1-9.89.23-19.78.24-29.67,0-3.34.15-6.14,4.67-6.31,1.26,0,2.46-1.79,3.69-2.75-1.4-1-2.73-2.85-4.2-3C229,475.8,224.11,476,219.28,476Z" transform="translate(-0.25 -0.25)"/><path d="M276.35,427c-4.27,2-7.7,3.1-10.7,5-26.36,16.22-25.71,53.88-14.23,71.63,14.58,22.56,49.1,23.38,64.64,1.44,12.45-17.55,12.55-47.05-.51-64-6.06-7.85-14.24-13.06-25-12.39-7.7.48-12.73,4.76-15.5,11.51-3,7.29-3.09,14.94,2.21,21.15,1.58,1.85,7,2.74,9,1.46,3.65-2.44,1.26-5.68-1.65-7.93a23.26,23.26,0,0,1-2.48-2.16c-4-4.14-3.4-12.13,1.23-15.78,3.84-3,9.63-1.65,13,3.5a30.87,30.87,0,0,1,3.76,8.34c4.06,14.68,3.25,29.61,1.55,44.5A38.45,38.45,0,0,1,298.47,504c-2.7,6.22-7,10.71-14.49,10.38-7.19-.32-11.49-4.84-13.34-11-2.14-7.07-3.89-14.51-4.12-21.84-.54-17.46-2.4-35.41,9.79-50.51C276.63,430.67,276.35,429.81,276.35,427Z" transform="translate(-0.25 -0.25)"/><path d="M505.23,426.76c-5.54,3.12-10.75,5.15-14.86,8.53-15.79,13-21.64,37.69-14.36,58.48,10.16,29,46.88,36.79,67,14.19,14.9-16.7,15.54-51.13.81-68.11-7.07-8.14-16-13.29-27.41-10.55-13.07,3.13-19.13,22.42-9.8,32,1.77,1.82,7.06,2.7,8.89,1.41,3.36-2.37,1.54-5.78-1.7-7.93-.55-.36-1-.85-1.54-1.24a8.43,8.43,0,0,1-2.7-11.16c1.4-2.78,4.63-6.57,6.93-6.49,3.31.11,6.79,3,9.65,5.34,1.52,1.25,2.2,3.8,2.73,5.9,4.65,18.68,5.15,37.36-.83,55.85-2.4,7.41-7.36,11.26-13.73,11.34-7.39.1-11.66-4.1-14.33-10.54-6.59-15.86-5.07-32.47-3.44-48.76C497.46,446.24,501.72,437.81,505.23,426.76Z" transform="translate(-0.25 -0.25)"/><path d="M403,147.53l-1.21-1.84c-2.89,1.17-5.95,2-8.62,3.56-21.6,12.38-29.79,44.64-17.6,68.88,12.49,24.83,48.35,28.54,65.21,6.66,13.24-17.19,13.12-36.23,6.59-55.67-3-9-9.36-15.76-18.12-20s-19.4-2.66-24.91,3.7c-5.82,6.71-7,18.43-1.86,25.15,1.6,2.1,4.73,3.42,7.42,4.13,1.05.28,4.21-2.63,4-3.16a15.74,15.74,0,0,0-4.3-6.63c-3.86-3.08-5.18-7.07-3.43-11.06,1.33-3,4.7-7.28,7.12-7.25,3.37,0,6.9,3.3,9.93,5.72,1.38,1.1,2,3.42,2.49,5.3,4.49,16,4.35,32.12,1.57,48.3a42.68,42.68,0,0,1-3.81,11.12c-2.47,5.09-6.63,8-12.58,8s-9.8-2.93-12.65-7.94c-9.65-17-7.88-57.26,3.3-73.54A18.24,18.24,0,0,0,403,147.53Z" transform="translate(-0.25 -0.25)"/><path d="M363.05,427.41c-11-.33-19.79,3.26-24.88,12.59-5.18,9.49-3.9,19.15,2.36,28,2.41,3.4,5.1,6.58,7.68,9.85,6.22,7.92,12.81,15.59,18.56,23.83,4.19,6,3.76,12.85.72,19.52-2.31,5.07-6.42,7.06-11.66,6.92-5-.12-8.13-2.93-9.67-7.57-1-2.91-1.37-6.11-2.83-8.73-1.11-2-3.45-4.49-5.3-4.53s-4.8,2.05-5.95,4c-3.72,6.26-.25,14.91,7.32,19.51,12.9,7.85,34.64,4.76,44.39-6.31,9.95-11.28,9.58-26.46-1.51-40.28-5.48-6.84-12-12.84-17.47-19.7-3.62-4.55-7.06-9.64-9-15.05-2.66-7.5,1.07-14.39,7-15.43,4.84-.85,7.29,2.45,9.69,11,.72,2.58,3.75,4.52,5.72,6.75,2.27-2,6.23-3.9,6.44-6.13a17.2,17.2,0,0,0-3-11.23C377,428.38,369.79,427.45,363.05,427.41Z" transform="translate(-0.25 -0.25)"/><path d="M411.15,365.5c-1.84.5-3.66,1-5.51,1.49-5.49,1.35-10.95,3.5-16.5,3.8-8.07.44-11.22-3.06-11.49-11-.21-5.92,0-11.86-.14-17.79-.12-4,1.71-5.52,5.56-5.43a141.54,141.54,0,0,0,15.14-.15c1.64-.13,3.13-2,4.68-3.06-1.51-.91-3-2.52-4.53-2.62-5.25-.35-10.54-.27-15.81-.16-3.61.08-5.15-1.36-5.1-5.06.13-9.23.19-18.46-.05-27.68-.13-4.81,2.05-6.5,6.39-5.72,6.45,1.16,12.82,2.73,19.27,3.79,1.74.29,3.67-.64,5.51-1-.6-2.16-.6-4.92-2-6.29S402.53,287,400.4,287c-11.85-.23-23.86-1.45-35.52,0A103.29,103.29,0,0,0,335,296a17.4,17.4,0,0,0-8.78,21.89c1.37,3.42,5.46,6.64,9.06,8.05,4.3,1.69,9.69.94,12.09-3.88,1.26-2.51.83-6.22.11-9.14-.2-.85-4-1-6.14-1.17-2.37-.18-4.77,0-7.16.05.28-3.08-.51-6.93,1.05-9.09,4.76-6.62,12.25-8.47,21.12-9.94,0,10.81-.08,20.82,0,30.83,0,4.16-.32,7.45-5.82,7.3-1.16,0-2.38,1.9-3.57,2.93,1.27.9,2.59,2.63,3.79,2.56,5.18-.32,5.72,2.68,5.66,6.67-.1,6.15-.78,12.44.27,18.41.81,4.63,2.76,10.17,6.13,13C375,384.84,402.09,380.37,411.15,365.5Z" transform="translate(-0.25 -0.25)"/><path d="M451.3,475.47h.08c0-11.86.14-23.72-.08-35.58-.08-4.64,1.58-6.79,6.17-5.77,4.89,1.1,9.66,2.67,14.54,3.82,1.7.4,4.9.65,5.09.14.74-2.07,1.51-5.14.49-6.58a9.21,9.21,0,0,0-6.56-3.24c-14-.2-28.1-.57-42.08.34-9.64.63-18.92,3.81-26.55,10.42-6.38,5.54-8.78,12.52-7.07,20.71,1.23,5.94,6.46,9.54,12.72,9.19,5.39-.3,9.33-2.59,10.28-8.32.87-5.26-2.28-7.93-7.21-6.89-2.4.51-5.05-.14-7.59-.26.64-3.21.19-7.94,2.13-9.32,5.21-3.72,11.32-6.3,17.31-8.77,5.36-2.21,7.75-.51,7.66,5.93-.35,22.84-.2,45.69-.09,68.54C430.57,518,433.62,521,441,521c7.15,0,10.1-2.75,10.27-10.6C451.48,498.76,451.3,487.12,451.3,475.47Z" transform="translate(-0.25 -0.25)"/><path class="cls-3" d="M272.13,330.87c4.12-7.85,7.05-14.19,10.65-20.12,7.61-12.56,15.21-25.15,23.55-37.22,4.05-5.87,10.2-9.76,18-9.18,4,.3,6.8,2.16,6.47,6.61a5.26,5.26,0,0,1-2.05,3.78c-.79.42-2.88-.52-3.72-1.45-3.62-4-6.95-2.7-10.3.19-5.49,4.73-7.12,11-6.48,17.85,2.27,24.28,4.72,48.54,7,72.83.52,5.65,1.86,10,10.74,7.94-2,2.44-2.69,4-3.72,4.33-5,1.37-10.1,3.1-15.23,3.37-6.77.35-10.75-3.26-11.66-10-2-14.8-3.61-29.65-5.37-44.48a14.83,14.83,0,0,0-2.2-6.92,45.65,45.65,0,0,0-3.58,5.45c-4.23,8.94-8.14,18-12.56,26.87-1.24,2.48-4.22,6.26-5.7,6-2.57-.51-5.34-3.34-6.72-5.91-4.79-8.88-9-18.07-13.49-27.11a11.13,11.13,0,0,0-4.91-5.1c-.23,2-.49,4-.68,6-1.08,11.57-1.33,23.29-3.39,34.68-3.14,17.3-20.57,25.74-36.43,18.14-2.18-1-3.54-4.38-4.53-6.95-.3-.78,1.67-3,3-3.66.87-.4,2.85.67,3.8,1.62,10.26,10.22,22.59,7.21,25.46-7.38,2.78-14.15,3.41-28.74,4.77-43.15a134.46,134.46,0,0,0,.4-15.16c-.15-8.73-5.1-12.26-13-8.47-4.12,2-7.72,5.57-10.64,9.18-1.12,1.38-.22,5.1.85,7.2.43.84,3.81,0,5.82.23,2.53.26,7.1.5,7.19,1.23.43,3.18.55,7.18-1.07,9.69-2.79,4.32-7.68,4.51-12.49,3.1-5.23-1.53-8.06-5.08-8.73-10.39-1.16-9.27,3.75-19.29,13.15-22.95A79.57,79.57,0,0,1,238,286.59c7.35-.46,13.48,3.3,16.93,10.44,3.82,7.9,7.78,15.74,11.74,23.57C268.07,323.48,269.66,326.29,272.13,330.87Z" transform="translate(-0.25 -0.25)"/><path class="cls-3" d="M478.31,292.88c7.15-4.4,14.13-8.27,22.6-5.93,5.36,1.47,6.75,5.82,6.77,10.8q.1,30,.15,60c0,2,.13,4,0,5.93-.35,5.55,0,10.43,8.06,9-5.34,7.07-19.29,9.92-25.56,5-3.38-2.64-5.62-2.3-9.27-.71-22.37,9.78-40.58-2.05-40.91-26.34-.06-4.39.26-8.78.49-13.16.6-11.41,1.46-22.81,1.79-34.22.27-9.58-5-12.65-13.57-8.14-4.69,2.45-9.39,5.09-9.22,11.6.11,4.39,1.78,6.19,6.19,4.45,3.59-1.43,7.46-3.13,8.9,2.49,1.21,4.77-.12,8.64-5.05,10.74-8.73,3.71-17.24-1.42-17.94-10.88-.48-6.49,1.3-12.2,6.09-16.73,9.08-8.57,20.05-11.71,32.18-9.94,8.9,1.3,13.76,7.33,13.49,16.73-.43,15.14-1.55,30.26-2.21,45.39a55.7,55.7,0,0,0,.64,11.17c1.65,10.32,8.91,14.43,18.71,11.1,4.54-1.54,6.59-4,6.52-9.13q-.44-29.32-.07-58.67C487.16,297.35,486.74,292.59,478.31,292.88Z" transform="translate(-0.25 -0.25)"/><path class="cls-3" d="M289.67,192.78c0-10.77,0-21.53,0-32.29,0-6.73-1.95-8.73-8.3-6.76a32.17,32.17,0,0,0-12,7.39c-1.45,1.38-1,5.35-.44,7.92.18.79,4,1.67,5.55,1.06,3.27-1.27,6.36-3.13,8.29,1.24,1.86,4.21,1.09,8.18-3,11a12.52,12.52,0,0,1-19.34-7.3c-2.24-9.06,1.85-19.05,11.15-22.95a88,88,0,0,1,24.05-6c15.35-1.69,30.73-1.56,45.06,5.79,7.16,3.68,12.68,9.19,15.21,16.62,6.32,18.63,5.95,37.15-6.28,53.34-11.7,15.51-28.77,19.21-47.23,17.36-9.74-1-12.56-4.36-12.71-14.14-.15-10.76,0-21.53,0-32.29Zm21-1.06h0c0,10.11,0,20.22,0,30.34.05,9.56,6,13.14,14.17,8,3.17-2,6.47-5.24,7.7-8.64,7-19.41,7.72-39.13.37-58.64-2.24-5.94-6.42-10.56-13.5-11.09-6-.44-8.62,1.75-8.69,7.72C310.62,170.17,310.71,180.94,310.71,191.72Z" transform="translate(-0.25 -0.25)"/><path class="cls-3" d="M219.28,476c4.83,0,9.68-.24,14.49.14,1.47.12,2.8,1.93,4.2,3-1.23,1-2.43,2.7-3.69,2.75-4.52.17-4.66,3-4.67,6.31,0,9.89-.14,19.78-.24,29.67-.2,18.75-11.16,31.2-30,33-6.2.59-12.62-.44-18.86-1.31a6.9,6.9,0,0,1-4.79-3.91c-.54-1.89.84-4.32,1.38-6.52,1.87.47,4.32.34,5.51,1.5,6.7,6.59,11.71,7.62,19.1,3.35,5.57-3.22,11.17-15.35,9-20.66-.58-1.4-3.67-2.07-5.73-2.48-8.51-1.67-17.73-1.61-25.46-5-13.38-5.85-17.85-18.56-19.43-32.25-3-26,9.16-47,31.73-54.34a40.1,40.1,0,0,1,29.62,1.42c7.78,3.5,11.14,10.93,7.45,17.07a11.92,11.92,0,0,1-8.2,5c-1.82.14-4-3.66-5.89-5.84-.5-.58-.38-1.68-.55-2.54-2.32-11.87-8.18-14.16-17.77-6.62-8.66,6.82-12.81,16.63-13.39,27a147,147,0,0,0,2,33.9c1.95,10.93,10.75,16.42,20.78,14.69,2-.34,4.78-3.26,5-5.19.61-7,.16-14,.31-21.07.1-4.29-2.39-4.87-5.87-5.25-1.71-.18-3.26-1.94-4.88-3,1.68-1,3.29-2.67,5-2.82,4.58-.41,9.22-.14,13.84-.14Z" transform="translate(-0.25 -0.25)"/><path class="cls-3" d="M276.35,427c0,2.78.28,3.64,0,4-12.19,15.1-10.33,33.05-9.79,50.51.23,7.33,2,14.77,4.12,21.84,1.85,6.12,6.15,10.64,13.34,11,7.54.33,11.79-4.16,14.49-10.38a38.45,38.45,0,0,0,3.17-10.71c1.7-14.89,2.51-29.82-1.55-44.5a30.87,30.87,0,0,0-3.76-8.34c-3.33-5.15-9.12-6.54-13-3.5-4.63,3.65-5.26,11.64-1.23,15.78a23.26,23.26,0,0,0,2.48,2.16c2.91,2.25,5.3,5.49,1.65,7.93-1.94,1.28-7.39.39-9-1.46-5.3-6.21-5.19-13.86-2.21-21.15,2.77-6.75,7.8-11,15.5-11.51,10.72-.67,18.9,4.54,25,12.39,13.06,16.93,13,46.43.51,64C300.52,527,266,526.17,251.42,503.61c-11.48-17.75-12.13-55.41,14.23-71.63C268.65,430.13,272.08,429,276.35,427Z" transform="translate(-0.25 -0.25)"/><path class="cls-3" d="M505.23,426.76c-3.51,11.05-7.77,19.48-8.64,28.25-1.63,16.29-3.15,32.9,3.44,48.76,2.67,6.44,6.94,10.64,14.33,10.54,6.37-.08,11.33-3.93,13.73-11.34,6-18.49,5.48-37.17.83-55.85-.53-2.1-1.21-4.65-2.73-5.9-2.86-2.35-6.34-5.23-9.65-5.34-2.3-.08-5.53,3.71-6.93,6.49a8.43,8.43,0,0,0,2.7,11.16c.53.39,1,.88,1.54,1.24,3.24,2.15,5.06,5.56,1.7,7.93-1.83,1.29-7.12.41-8.89-1.41-9.33-9.57-3.27-28.86,9.8-32,11.44-2.74,20.34,2.41,27.41,10.55,14.73,17,14.09,51.41-.81,68.11-20.17,22.6-56.89,14.83-67-14.19-7.28-20.79-1.43-45.5,14.36-58.48C494.48,431.91,499.69,429.88,505.23,426.76Z" transform="translate(-0.25 -0.25)"/><path class="cls-3" d="M403,147.53a18.24,18.24,0,0,1-1.46,3.38c-11.18,16.28-12.95,56.53-3.3,73.54,2.85,5,6.77,7.87,12.65,7.94s10.11-2.88,12.58-8a42.68,42.68,0,0,0,3.81-11.12c2.78-16.18,2.92-32.34-1.57-48.3-.53-1.88-1.11-4.2-2.49-5.3-3-2.42-6.56-5.68-9.93-5.72-2.42,0-5.79,4.21-7.12,7.25-1.75,4-.43,8,3.43,11.06a15.74,15.74,0,0,1,4.3,6.63c.21.53-2.95,3.44-4,3.16-2.69-.71-5.82-2-7.42-4.13-5.11-6.72-4-18.44,1.86-25.15,5.51-6.36,16.29-7.9,24.91-3.7s15.09,11,18.12,20c6.53,19.44,6.65,38.48-6.59,55.67-16.86,21.88-52.72,18.17-65.21-6.66-12.19-24.24-4-56.5,17.6-68.88,2.67-1.54,5.73-2.39,8.62-3.56Z" transform="translate(-0.25 -0.25)"/><path class="cls-3" d="M363.05,427.41c6.74,0,14,1,18.63,7a17.2,17.2,0,0,1,3,11.23c-.21,2.23-4.17,4.1-6.44,6.13-2-2.23-5-4.17-5.72-6.75-2.4-8.54-4.85-11.84-9.69-11-5.88,1-9.61,7.93-7,15.43,1.91,5.41,5.35,10.5,9,15.05,5.45,6.86,12,12.86,17.47,19.7,11.09,13.82,11.46,29,1.51,40.28-9.75,11.07-31.49,14.16-44.39,6.31-7.57-4.6-11-13.25-7.32-19.51,1.15-1.94,3.95-4,5.95-4s4.19,2.54,5.3,4.53c1.46,2.62,1.86,5.82,2.83,8.73,1.54,4.64,4.7,7.45,9.67,7.57,5.24.14,9.35-1.85,11.66-6.92,3-6.67,3.47-13.51-.72-19.52-5.75-8.24-12.34-15.91-18.56-23.83-2.58-3.27-5.27-6.45-7.68-9.85-6.26-8.82-7.54-18.48-2.36-28C343.26,430.67,352.09,427.08,363.05,427.41Z" transform="translate(-0.25 -0.25)"/><path class="cls-3" d="M411.15,365.5c-9.06,14.87-36.15,19.34-48.28,9-3.37-2.87-5.32-8.41-6.13-13-1.05-6-.37-12.26-.27-18.41.06-4-.48-7-5.66-6.67-1.2.07-2.52-1.66-3.79-2.56,1.19-1,2.41-3,3.57-2.93,5.5.15,5.87-3.14,5.82-7.3-.12-10,0-20,0-30.83-8.87,1.47-16.36,3.32-21.12,9.94-1.56,2.16-.77,6-1.05,9.09,2.39,0,4.79-.23,7.16-.05,2.16.16,5.94.32,6.14,1.17.72,2.92,1.15,6.63-.11,9.14-2.4,4.82-7.79,5.57-12.09,3.88-3.6-1.41-7.69-4.63-9.06-8.05A17.4,17.4,0,0,1,335,296a103.29,103.29,0,0,1,29.86-9c11.66-1.47,23.67-.25,35.52,0,2.13,0,4.87.31,6.19,1.63s1.38,4.13,2,6.29c-1.84.37-3.77,1.3-5.51,1-6.45-1.06-12.82-2.63-19.27-3.79-4.34-.78-6.52.91-6.39,5.72.24,9.22.18,18.45.05,27.68-.05,3.7,1.49,5.14,5.1,5.06,5.27-.11,10.56-.19,15.81.16,1.56.1,3,1.71,4.53,2.62-1.55,1.07-3,2.93-4.68,3.06a141.54,141.54,0,0,1-15.14.15c-3.85-.09-5.68,1.43-5.56,5.43.16,5.93-.07,11.87.14,17.79.27,8,3.42,11.45,11.49,11,5.55-.3,11-2.45,16.5-3.8C407.49,366.54,409.31,366,411.15,365.5Z" transform="translate(-0.25 -0.25)"/><path class="cls-3" d="M451.3,475.47c0,11.65.18,23.29-.07,34.93-.17,7.85-3.12,10.59-10.27,10.6-7.34,0-10.39-3-10.42-11.17-.11-22.85-.26-45.7.09-68.54.09-6.44-2.3-8.14-7.66-5.93-6,2.47-12.1,5.05-17.31,8.77-1.94,1.38-1.49,6.11-2.13,9.32,2.54.12,5.19.77,7.59.26,4.93-1,8.08,1.63,7.21,6.89-.95,5.73-4.89,8-10.28,8.32-6.26.35-11.49-3.25-12.72-9.19-1.71-8.19.69-15.17,7.07-20.71,7.63-6.61,16.91-9.79,26.55-10.42,14-.91,28.05-.54,42.08-.34a9.21,9.21,0,0,1,6.56,3.24c1,1.44.25,4.51-.49,6.58-.19.51-3.39.26-5.09-.14-4.88-1.15-9.65-2.72-14.54-3.82-4.59-1-6.25,1.13-6.17,5.77.22,11.86.08,23.72.08,35.58Z" transform="translate(-0.25 -0.25)"/><path class="cls-1" d="M310.71,191.72c0-10.78-.09-21.55,0-32.32.07-6,2.67-8.16,8.69-7.72,7.08.53,11.26,5.15,13.5,11.09,7.35,19.51,6.6,39.23-.37,58.64-1.23,3.4-4.53,6.64-7.7,8.64-8.14,5.15-14.12,1.57-14.17-8-.05-10.12,0-20.23,0-30.34Z" transform="translate(-0.25 -0.25)"/></g><path class="cls-2" d="M94.27,178.56c-.41.43-9.63,9.45-13.7,14.39-7.64,9.29-11.91,16.68-16.87,25.43-5.34,9.42-15.44,21.47-20.26,43.34l25.67-14.85a125.57,125.57,0,0,0-4.84,15.91c-6.16,26.41-2.59,49.72,1.26,73.41.79,4.89,2.11,12.34,4.18,21.42a294.56,294.56,0,0,1,6.5-43.81c5.29-23.4,11.54-49.87,30.66-76.43A158.25,158.25,0,0,1,137,205.89c-13.55,3.66-25.49,7.93-29.79,9.2A50.19,50.19,0,0,1,114,202.27c11.73-14.84,25.4-23.8,32.65-28.2,15.81-9.61,24-14.66,25.12-15,.48-.16-28.33-3.7-31-3.9l22.87-25.5c36.91-41.16,78.2-64.54,78.37-64.82s-27.94,9.88-49.28,21.86c-27.78,15.6-27.78,15.6-51.23,30.68-17,11-23.94,18.12-35.13,28.2C92.88,157.74,80,172.65,66.64,185" transform="translate(-0.25 -0.25)"/></g></g></g></svg>